<mxfile host="app.diagrams.net" agent="Mozilla/5.0 (Macintosh; Intel Mac OS X 10_15_7) AppleWebKit/537.36 (KHTML, like Gecko) Chrome/131.0.0.0 Safari/537.36" version="25.0.1">
  <diagram name="PÃ¡gina-1" id="LDlF3dFWqFJcOSGQYSzg">
    <mxGraphModel dx="1667" dy="488" grid="1" gridSize="10" guides="1" tooltips="1" connect="1" arrows="1" fold="1" page="1" pageScale="1" pageWidth="827" pageHeight="1169" math="0" shadow="0">
      <root>
        <mxCell id="0" />
        <mxCell id="1" parent="0" />
        <mxCell id="MRQ7gDNeuLcYPqNr2epW-3" value="" style="rounded=0;whiteSpace=wrap;html=1;fillColor=#000000;strokeColor=#d6b656;" vertex="1" parent="1">
          <mxGeometry x="-80" y="80" width="590" height="200" as="geometry" />
        </mxCell>
        <mxCell id="MRQ7gDNeuLcYPqNr2epW-9" value="" style="edgeStyle=orthogonalEdgeStyle;rounded=0;orthogonalLoop=1;jettySize=auto;html=1;strokeColor=#FFFFFF;" edge="1" parent="1" source="MRQ7gDNeuLcYPqNr2epW-4" target="MRQ7gDNeuLcYPqNr2epW-5">
          <mxGeometry relative="1" as="geometry" />
        </mxCell>
        <mxCell id="MRQ7gDNeuLcYPqNr2epW-4" value="Nessie&#xa;Catalog" style="shape=image;verticalLabelPosition=bottom;labelBackgroundColor=default;verticalAlign=top;aspect=fixed;imageAspect=0;image=https://projectnessie.org/img/nessie-swim.png;" vertex="1" parent="1">
          <mxGeometry x="287.76" y="140" width="81.24" height="81" as="geometry" />
        </mxCell>
        <mxCell id="MRQ7gDNeuLcYPqNr2epW-5" value="MinIO&#xa;Storage" style="shape=image;verticalLabelPosition=bottom;labelBackgroundColor=default;verticalAlign=top;aspect=fixed;imageAspect=0;image=https://blog.alexellis.io/content/images/2017/01/minio_light_cir_sm-1.png;" vertex="1" parent="1">
          <mxGeometry x="400" y="140" width="82" height="82" as="geometry" />
        </mxCell>
        <mxCell id="MRQ7gDNeuLcYPqNr2epW-8" style="edgeStyle=orthogonalEdgeStyle;rounded=0;orthogonalLoop=1;jettySize=auto;html=1;entryX=0;entryY=0.5;entryDx=0;entryDy=0;strokeColor=#FFFFFF;" edge="1" parent="1" source="MRQ7gDNeuLcYPqNr2epW-6" target="MRQ7gDNeuLcYPqNr2epW-4">
          <mxGeometry relative="1" as="geometry" />
        </mxCell>
        <mxCell id="MRQ7gDNeuLcYPqNr2epW-6" value="Trino&#xa;Query Processor" style="shape=image;verticalLabelPosition=bottom;labelBackgroundColor=default;verticalAlign=top;aspect=fixed;imageAspect=0;image=https://upload.wikimedia.org/wikipedia/commons/thumb/5/57/Trino-logo-w-bk.svg/1200px-Trino-logo-w-bk.svg.png;" vertex="1" parent="1">
          <mxGeometry x="95.87" y="145.51" width="150.75" height="70.98" as="geometry" />
        </mxCell>
        <mxCell id="MRQ7gDNeuLcYPqNr2epW-10" value="" style="rounded=0;whiteSpace=wrap;html=1;fillColor=none;strokeColor=#ABABAB;dashed=1;" vertex="1" parent="1">
          <mxGeometry x="90" y="130" width="400" height="130" as="geometry" />
        </mxCell>
        <mxCell id="MRQ7gDNeuLcYPqNr2epW-12" value="" style="shape=image;verticalLabelPosition=bottom;labelBackgroundColor=default;verticalAlign=top;aspect=fixed;imageAspect=0;image=https://www.freecodecamp.org/portuguese/news/content/images/2024/06/pyspark.jpg;" vertex="1" parent="1">
          <mxGeometry x="-59.69" y="130" width="84.88" height="47.85" as="geometry" />
        </mxCell>
        <mxCell id="MRQ7gDNeuLcYPqNr2epW-13" value="" style="shape=image;verticalLabelPosition=bottom;labelBackgroundColor=default;verticalAlign=top;aspect=fixed;imageAspect=0;image=https://miro.medium.com/v2/resize:fit:1400/0*WjSAJOw135lrf8__.jpg;" vertex="1" parent="1">
          <mxGeometry x="-54.75" y="177.85" width="75" height="30" as="geometry" />
        </mxCell>
        <mxCell id="MRQ7gDNeuLcYPqNr2epW-14" value="" style="shape=image;verticalLabelPosition=bottom;labelBackgroundColor=default;verticalAlign=top;aspect=fixed;imageAspect=0;image=https://trino.io/assets/images/logos/python.png;" vertex="1" parent="1">
          <mxGeometry x="-60" y="191.85" width="85.19" height="68.15" as="geometry" />
        </mxCell>
        <mxCell id="MRQ7gDNeuLcYPqNr2epW-16" value="" style="shape=flexArrow;endArrow=classic;html=1;rounded=0;strokeColor=#F2F2F2;exitX=0.958;exitY=0.442;exitDx=0;exitDy=0;width=6.666666666666666;endSize=3;startSize=5;exitPerimeter=0;entryX=0.025;entryY=0.615;entryDx=0;entryDy=0;entryPerimeter=0;" edge="1" parent="1" source="MRQ7gDNeuLcYPqNr2epW-14" target="MRQ7gDNeuLcYPqNr2epW-10">
          <mxGeometry width="50" height="50" relative="1" as="geometry">
            <mxPoint x="250" y="200" as="sourcePoint" />
            <mxPoint x="110" y="220" as="targetPoint" />
          </mxGeometry>
        </mxCell>
        <mxCell id="MRQ7gDNeuLcYPqNr2epW-17" value="" style="shape=flexArrow;endArrow=classic;html=1;rounded=0;strokeColor=#F2F2F2;exitX=1;exitY=0.5;exitDx=0;exitDy=0;width=6.666666666666666;endSize=3;startSize=5;" edge="1" parent="1" source="MRQ7gDNeuLcYPqNr2epW-12">
          <mxGeometry width="50" height="50" relative="1" as="geometry">
            <mxPoint x="72" y="232" as="sourcePoint" />
            <mxPoint x="98" y="180" as="targetPoint" />
          </mxGeometry>
        </mxCell>
        <mxCell id="MRQ7gDNeuLcYPqNr2epW-18" value="" style="shape=flexArrow;endArrow=classic;html=1;rounded=0;strokeColor=#F2F2F2;width=6.666666666666666;endSize=3;startSize=5;exitX=0.186;exitY=0.55;exitDx=0;exitDy=0;exitPerimeter=0;" edge="1" parent="1" source="MRQ7gDNeuLcYPqNr2epW-3">
          <mxGeometry width="50" height="50" relative="1" as="geometry">
            <mxPoint x="64" y="194" as="sourcePoint" />
            <mxPoint x="94" y="195" as="targetPoint" />
          </mxGeometry>
        </mxCell>
        <mxCell id="MRQ7gDNeuLcYPqNr2epW-1" value="docker compose" style="shape=image;verticalLabelPosition=bottom;labelBackgroundColor=default;verticalAlign=top;aspect=fixed;imageAspect=0;image=data:image/png,iVBORw0KGgoAAAANSUhEUgAAAd8AAABpCAMAAABMOtm2AAABaFBMVEX///+JLKBgYFvMzMwAAABbW1aGIp3Pz8+weL+nZrhYWFNhYVzr6+q7zOOIKZ9vb2uMjIh9m8uEHJzk6/U/crYjYa6eXrBUVE6xsa+Sko92dnGFH52lpaLz9vsuZ7FTfbtpaWSTPqiONaSYSKzPsdjVu9z17ffbxuG+vr4lJSWdnZuBD5qDg4Pw5vPk5OPZ2dnR3e2uwd6bUa4TExNGRka+kspZg79qjb+1g8McHBx9fXnMqtVPT0nCwsPg0Obk0Ok5OTm1m73Bs8UuLi7s3vC7jcerbrukdbJxIIXLxc25ob/FntA5EkOdV7Cpq689PT1NbZuba6lRE19dKGtjHHSrgrbCt8YgCCV5JY4UBhfc0t5gT2UWGhWvirkZCB1HFlMfM0+QqtINHzcuWZMmSHhiaG8wSW0AABFse5NMBVtvU3eKbZEiACqGX5BjWWJiEXRQTkF3ja18cHxVaYqQortIaJZKWnFxk8bqcQyQAAAZ30lEQVR4nO1di3/aRp4HNNKYRwWZpCAQNLwtI0AttjcYW34ETOq44LTbpOndpt1s97a3u93H3T7679+MHqORNAIcP2r7+H7uk601Gkmnr+b3/g2x2CI0B4MGixqLOou4Bam18HJr3C1sSpJ+KUjS0S/9zGusjHZdbTRZtFhsMjh0MFAbvV/6qddYFUkUn1xuRk9Hs5t5ljWuHUOkX1qdbkpo4yaeZY1rx76Kzi8/6xzp+9f/LGtcOyY6Sn7IvA0kbV73s6xx7SC2VfuDZg7U+trGuuuoXN62ctHDX8b1Pswa147TD7CtXLRkNLzOZ1nj2tFEV6HoXF/bWHca2LaacgcMaGqaoiiaZgpGJnL+EKF1oPLuotdQByHbKmPkCsfbgMF4p6r0+VfANtYHau81bh5TpIbYKV5gRrd30qNih6DYze5sEZJTGu8K997GOnIjrw/wM+XErcqYyWrRNAzIwIDz7g4AFybnGpvq/Y5jzdyMCV9P3Wdg2+rUf6R/Aba7AoRCEJhkLQHAiHcVHe3eyuPeDPKSk/C8118pDxM5aFsJ20DUwuS6FJePQYqjhofoPieDHyy/7YFa89tWGgA5ztr1GBZS4JhjSzdU9f7GsR4sv3mk+00KE4DyAnYJjCzYroSu1K4Fv5R7hIfK7ylSm74DfQA6S+jFS7gExPC1DuP318Z6oPy29KBttQOKS+nFEEExfLV7bGM9TH6xbRXICRZBGmIbyiCeEX/pOmPbAIavd3/jWA+S33YjqDENsI19oHmKuL8Kj2CoZbcBOCgbZTDmXDEZ1Ob3BQ+S3yRSD/1Hslg6wy4JRY7BNk9Ql/fA1s4xAFlDBEr4ir3Gh2aRf2E8RH7PEQqkfQwwFmAOW1iCYXbBFmf97oCuZgidMegq3AV8iCIyFXccD5Dflq4HbKtYF9vOsHxsSWY458U4zDLRy1Abl2EV8AKV2GK7j8ngh8cv9mamQScWjE0Sv4COJcW1r6idpYAs77qnCDV5x+82Hhy/7YFaD2pKDWRhgMZFFI+3udnCKZIOecfvNB4cv0mEQq0lI2DbzBCePY9YvuTw8zNrDNth3Fxh+z7aWA+N3109LEUzx9s2hS9ruq7PnnP9ozckk1Y7IUq4zBfQsQm6f00ND4zfVignGCOhSdGi8ESdfvnV51L8JSdB+FxOvvj113HpNRkDOxFXV9VVbKx2z0GbPTY53GwdTXqrSoBKrzc5am0erj4D36LV3G9u+mZE8ZuhYA/2DUOARj+qYCnT7y8cD9wBXw1ap4dj+qHH8N8m6jEmdTUfvpgAumRZvpHxyu6AL+Q6q25tcX02wMRB8M1bHa9uY7wVUa6zi/QVbKxp3Gk1pTG01umsbqfZ5cbG+fJsVKU1zNeclkepljxdodC+NZzFdR0hpOvxwZBG26L4LVVtpMvuEVgeVcUCgZjNKeF3CzvdheMsMmYnl02nrLMLqeqoY/LPzzhPUU0I/Mfw81CpqSrna89ZmQX4ok7+AOB73ZLCJr5QIp0tKphh+FIi4akq+Eb6Ev+VBkL4KhamHO0eQlKSLUh568/2eV1XZdl+z/go0meLg52bU6SrkjMBT5FUXR4uvG1vV9Yl9xb4HqpeP7e/8yh+s2LCQsrhV6kWUs4hDDGVKvpfrZIuiP7xaIa1boE9GZ+OCSvylkzGPaNgv/BM8DaFnMGcPkUyz8IVAfF44SxO/gDgW/UFprSYOEiPirlSoZDFDL9W/yNGchDg88GZAIu8EJaFykCtLV1+SfedWvw264hS5UBCtegVudlAUjwIWUXJSOO9vYvU4C1kFLc+okh+Eyy/WjWVCEBMMe/AXDLOoF9OpMTgydb5nC8ik/bxq6TDtyl0qEA+14NxKxsXwDKLZ+ookxnZ/JqlVMmSGRX8PGIHvkb/mcmQ4iyL3zLoRr3LiaQutbFYfiunIXZtvoZ8pdSehqhyP4p42LKwcDjj38LKea3Ebzn0Wq2hjnvysnEPmU6YIkpVNrSE/fwW+bcZOd/FpsqPMPX3jg3C71T69jekLvYL9E4oHXgPZ2QL5ZfoK7CHx76TpvhMZfuC/yoxmhF3YcDyu6Hz2YqjGc9uOqqpEecTwmY80bEphZe7c4uN1fgtF/iEpJxU6bJxD5wFyBKcNgLn+/jNRcxNlaxze/EI70UgqUFiIqufk0LYb9+is9wBFi6Gkt0eF7VKrFIqzBvyd2Twa50Y1+YxiGZveVMD5TdJOsujIHEEfZO7Er0p9bAWbunRUzDBK/AbRR8etERw9HghIKK1gwXsEoKrARHN8htFL1nB5NwB74VZdwU521R+jd5+/8X3cfVEEUck5wDAHl7P2BfqF0YnqvzVF9+/VafWp7CzgN/YEC3pK3T5lZP77urFZpWqMjaT9cpDK7jpk822keabIocI3vRfE98Hg07Sm8ml/Bo8bem+dixR4YLxYD1ilzlXtMznlN/QClSoevxCbcHKL5B4Uy2qxqJMC3Ne11Wk1t7BnGiQoFYqOypVxwD/dyelndQwA/EXts+UAEFJwmBfDzdF+OC+U+wm2S9akmqz4e7uMNmQ2fUcrPo5YpciPrM2mM0GNZld03Ig9tqrsfQiuTbbGG4kG65JJ9fq7scUwa9YLrkEYKM4FTCNxKJnaUeNs6DfSgo7JhrE/q9ZLqWZOQV/8QTlN6Ux30XoNolshvRjRyTwsrSuDr45OXl5BmGaSPQD0CVIAKyJYaoIz16enLxxfOIRP0JpY6gviQVRfuPWW5b06abLyuGuzjDsD7W1Ga4kfdacWBZY++i8xvCu+utS8oy6RvrukWO09ZoNew6dGMVvomq/SrGQLiqmqRSxg8K82FRfKPjGc2Jg3H/ZTso6t6oxxzOKN0X0G66U34TzH2IhkSsrSjlwG6IIWnqd/7qP92jFBrQiKqZlGCTADqa3tEWozKRH0B60T+sAjm3o0jDQl2z3kPQZPHrSV/nBGtSyzhrRU8qVjPK+Oa2a91H4bt7yrDdZ2vVZ5NjNYp8ikl/7tYpFKrCMHKNvxaIlcvE4JQyy40EbuiJiinIhM4rKAEviMwPpBAsx0aHDRpF9DLwgD2WJX0IDjk03DNnPZDLQnOOn6meMMTgupbfBqNKvxNIljQz2HX4VXpWdg56kLwlx+PhVQ1qj5elUVqVsSgxVgSntDY97xsqoNLxPpR70qCtT9jEW8psa+RhR2LH0wnGxFLirUihx6tf69HZ+r9nPbyrnI9+seks43cfiLaIGDuy4y9fIGII2n8+x2rjYymR2ADavOlg/C3j9KvO5BvuGza8WkWEg2NRR5JgNll+eUbDpRZrinjod0Fm8GOgQca7oLV+Zt0nBBiO8F/ErBr39gK0jjiqR4+mgT8uPegjuYvRrbB+/IX/a8EZTJn6tobINC32Qsvk1NcytImAhjPWvlULoANAnhe+KUShCzD3mWNGsU/ciMgwx8qaXBTgYfvmF002PLCptNznHWNDVKKNK+JjMjYflvQdZwG/QqI0FAhoLx1Oc1crDSORdjOWXEy4RqL8ldkjwn9vKaTrJfUyuZhAZrM27ogG2FUMZA1CCRgl0OmJnbstnTDGR5hfbkeHV2TL1y9pXDX6UauiuLCdEzT/kQ7vuLnpqlU2o+RSxAVRPWm5f2cZpEOzyrYYjxxWPlQWGKAslxbsbw29IiBDkRGb0UNd5b1Nx3V9TgJhCiAnUEiPN6uzO7ZB/RaEwEsy5YmT6riRPgCh+e1FqwENyoaS1LuK+eNltH6/QBEQ8Is687y5wyfUTqBiQo+oOdtXl/BZ4DJU91ceNM9NxscwZ5YAK6GoEvymeR+r53lnSi83dSqXDtB1BqM01rF5HBcUoVsv4kmY3q/RLqY4GBTLknpcFERnC2JEaYcZ5SHqiNOoUulrdRz7Sg+wF0XaNKVlyPmMqnvlhdzIHLeeXa2kwQY0qb9HQ8aAHHAVjCb8R16nSp4gRBcyLcHSBVy+pEHbxv+bowLueUS2UBWxcQWvY5jeiRCdGohsRbpgHym90V8sRCrz3c/dAtHFOF6N7CrWeuXLLAv0EIvnlp4Fo4o4mEAPj6cW8hNBfwm+BH1DyAmL4j1Nuk/oBcJelhq0ri2QsjLuFqkIKBDJGMZXuzE3TotZ0GMYOcLfymCD05pLL66Apvws2wHMjkfLA/nvoxjSjWxUn7hJ3tG3P1chytMHXCn5HLjx++YKKLhyu3PTGufxm+oamlDssqCaNWr/85++w/LZ0zsupgAvH/TUty4nQi1erUK4WUqXRCP87UqBFueadhB2k3z4lePI+eD1peQUHjT8vSBXPqAK2n5LmAaK/HmphqbafcLTEuiKgJli0fOZP9PhfPM7hFxZLiQKJMfpABS2XXzHHvw01y8hjtnVOk1AGVO1NNixAQiVWwqQ6R8llq9VRh9RvCHMTmmzduwF+97GFR8EXpi8vkqX8DqLPOXWEreMBU+UaDodQVGZ+rmhABEWLCXrdyPgzb08KjBKr+HjjYgS/StZfuxEEn9+IYgE/v7Eax3XRQBeWi9Wd8d723taFOOoqULAXsru9ii26BXcF2wp4vP3RpwSPA5dr6strZCm/Cxxl1xqWZWuN0zzBoq1uN/xrvOXqY3lBPG22jN8I/enyy3VbYpH8GuFCj5X4LUQURPn5HXIUcBckrB2Rtsbj8RZJ7++lOpwOQsKt6TOg+Y777gob0fjrc/jwfBtL5FBdGmkKxzwdLdk5hhYVAQsM+vwyfiP8G8pvhODk86slFi3dK/PbROHFJWJKd4plslOdSZR+dg+AbLiNwZyTSkpiRdvSPCLDUJlxbXQ/6PpdwO/+HeGXbx4z/Eatbx6/5lJ2r8bvkRSqrysCUNIMRwzb3HWOwVaoxQxqnWL2eM/Z0C7V7W4ff0rhGdFtpC+vVV1F/5775XP7UvI5oH+vIp+vk9++l/ERxZRTHeuA8nQVfmP1oHFbBFvlYEMKFKoA+AmGQplEsrbHOzupg51ja0M78MOTTxx8Sq+3qUvLy82Ty30d6pi69tXAbxvzUHHPkewCMM9+jv7kesvsq+vk14smpkodxXRMWhs0JXElfpOBeL4Gxkq43wjCEZMztBZvCoCLLpbhVtU7kePVLfDj75848Pg912fRxfguKL9RoUaMut8/onwv8o9kv409qS9f84fL/KNr5JeGqMSsEHpJS+JXK/KLpR47mtkDimFqfoYhPmJUvY5Cku7dA+Oya0o7clzIAfBfjx8Hghwb/ByVH178KtJVbtPCLDe+4SrTUPMjBQ1hOpet1K4hvnGN/HYcLsQSJ3bv8cvGUy7L7yHS2ZBCGnSUYyxpuwzBUCHmdPfYi0rDMjkjvMrNHXAQuF27sUp/ihd/jlTA1LxyG5rogejtyL2YtfP/48y9jx75TcyWxSevkV83BVjgRcSuh99ejX09EBwr2+BA3GO3RtK2wI64BY5p1h/iI9ytk6AgBneknEirbLPC5I+izh5Q3ek8b+8S+YWaI0923W8iUkD3luYXro/fjBuyTPPOh9fCrz/FUMLLd68LDUVklC3MkSNb3QunJ5gUw45I4VXQCiN/7wQaVZpLazesh6D8ShGl8LTwguYHvWRBlDVMMxDUBDukPlaUIXe6ND94ffz23RnciBgl6mr8nuqMz0k2VREgo1epcoWCUQR/sCLMT/8ACkansHWR89OrZbfGJQX8+PRXNp5+FCM1mqv81A5Tv8H3prxKSS8EQumT+BtOe7l6es22JwX4VsGRV353C/y6R7gRL1d4+wt6Ls0v67/YuzKcDBovznwEkyNvoLb3O9v5+XFbG2GXF4AddpVjnby1B7ar4Lef2IHojz/Dl2ys9HsMDL9yjSeh85wCAI8/LlkVqkllj38qoOMqzyxoe+V3t7h+uRFrk7rGV+O3rXr5U5LYh182km/VxpmlTi2ZC1+rg7dq7Uw4AJ8R/DfIatt7iqntpNjlW97qmloXYDfpn5/ZeEyyMeoqP3nF1tdJjTDBG3SctZa9ajiOOq0w9XUelZ56lePhB2vnV6ivuwH9y7GvDJpuvCK/FaY6qgo0+LzWi3X/iF5DaHa6o1yZdCHtxzp/VF/Aqt2jkMZnKdhJhqxDTOSzFeqCXVYDby7rTLHhq4+VgoWrPaYniWWShijx4aDabntzJNYZGnpls2rQ7u4N2Fa1W7Sfw1P6/kpXD5fml83x741N+A5bHh3wdiYUCweJaupALJ+gScwAnzeEohVhNogdDeGbl88DHhI8e/7c2iyJqaQ811faf8Nf3y7rUybM0d5luntliZ2272lLJLNsVfZ1b8UjNmbSZmvlfQ3C7XN/F/Ft+L8uiQX/NSsK26B2RX69/F0GiBCe6H8age/e5keFrmHAvplN/Vn9CxbNbweCYjX52s1nL1Q1nn/DEgxPakhuvIQC22o2W22LM8//ddqP5Nn54aTX602aU1+zd2DNbXgLW1Ybu4e9dqXS7h0Nme6FeMAA2GdFsJxsTdoVshHH4bBmF4jQSuvbjF9hE9or+uiX/SnDK/I70d3yNwObV/B5/O1P332t/iVVNNLY6e0apb/W5W++/RpLbAFUY3ZzEnw92Pzz39S8QPfkwGJcyr/7tSy9MapMonDF30Kj8ckGrdJAerxWqyPk6/YLfi1sAxKegqz+MrK3A/NFBOuppwzBsoTig+Q0Oau5/fzyoHaL8WdqIyfE1KijmIKmFEeJQEL4ivzG6A4oCglbwXdIVfV8NZupgr1jAMr9v/9JRqo+wBzuXWRisYttE54RlxN8reLVWh6lxfQIU54fVGLKT1hNF71E4aG+tHTSAs3/TidMf1Cg1RPTG/K1enW/ZA/1h6JQxrHi07J2f6g3Rz9M3iK/kO0YIgmklNcdSqm/Kr9Tt/4tB6yQ8pt3r19qf1diY5DNiXjJVkvkCBk5IDXOe2MDvsGfhAG+UN9p1UK62MklDrJmfJbBXwhW3Jq3V8O+zu25D4Hp725G7bbAoxev4Fl0PzhRsZxNHSqDyCky2l9x/40wPij/y9/HwTotdz3+LyGhhv/96P37Z68eWXj//v2jV4/ev3r16hn+v/fPnllHMJ69ev/+f0AKfwLS14Ux+F49qYpKpt/vZ8pidvD2r93ffEN2awC0wmyor7bDKFu/sR9cte67D0laC+1hdAe/pHLDkJE7dsjS+ar7q4TxQfxG7KBBek9obviq/B5JpJzh/ccff8JF4PDvwQir3Lz61bdfyLX/LQiQ7ACeMrTCX6S//fjT52QnpfHYSYcsbwx14KvP2ZR5O2qoclSgpFnjMyyjQVQa/5yz4Q75HIixcLv8xjq8vRxEbFBnrotfu43wo58frYR/kN5+eIYNEhQ/ETuxgrUDeDWWS3ypqyp6gclPua0MvVX3cPfXX7WHeoAxbDoNFwj6/bouBSiWVb2xwLTrTUO3UPWp5arfMr8xMx3svRcLJWxNXxu/sfwqKVoXXSvLAIWTF+/OOgUjMwbd7ghcVISD8vPXr8lOlXDk7tXQ0qXFF3MRrK/r7dZ05Ox5hm1cNNtdEiVpbbATJKQ3hkviZpPTBjND1etDxxnOI8lCsJGx6pQnFyL4zTrj4T1ybJTc8WD9XUUpeTuliaTt3/I/+gduIbSPX/fgQRS/BfcMeiiijZCPlJNF6mcMISca2MoeJ7ZAKWMcFIW+1Q3staoMV0ouxHj1k+3D3emgUas1GrON/ckKRlr78Hw6a5AZg/yqM3aTA+yD1WuN/LBFP6BhcmohGVAtxZyDiD6cjjseUZi8YLxilLtZsulgtjQqC45yy3TdCb76DfdgqOXfgUlPoIeOdJ1/Lg97Y832erX5vJsugnIX698i9olSxflcM01INrNzPuH8iuo3qj620m63lxf3sMATLrchcbs36fUud48bQibTz0S22F4JvfoKJY4uwI5AamPnmtAXOuIBdpm3wAXMgoLYgX2rZZhu575CY6iDVeqf1/hQVFZeZ6Q5SSTi2RT6hjbXSglSOEks6HGipM0VwyA9w6bjIB2p0oo/Q7jm90bBbyPkArpldqS1ECpiOlc2YkY5hx1h6LYbGk6GYYXGUAdrfm8UTV4bIcGjJ0+D+NerZxj/nP+T/M/P/0ikO6ZgFhOJf/zsHf/Xq6dPnzzCluiqW6Cv+b1RcNsICZ59HMInVnXGq6fOnz/8u3BwcFD49w/O30+euec8i6mrJRdia35vGrWIKppPP1oB5vyMd/jTCX9vaR7W/N4sIncqvArOOb1rEVjze7PY19XG6i7SSmjW0KrRjTW/N432VEVo0GSXW+VxNJbGA9qEXbSx8o+0r/m9aRxNJczwvsfcZ588icInny2+VmV/gFB8eomfLlvze/M4nOpIr527DH8WNp0pQluosKjs1/CFNi71479rfm8DvVMV6chJ1XygfG7vqjqSTleWzDbW/N4OeqdYb9aHl2SHmb9L5l+W3TW/t4febhwh+cMYbp/Wsd5dlqrlgeZc792vFd4/tPfrRH8GraMKP7jhNepPhgjp8vkH/V7o+dDBynmONa6A/YGO1KTfIX7MLc/6+FeOLp5sYHZr+3cik7rGMrRb2MNBSV/LRzjVQPCzxehkA0v1xv69+63f/8do4TXs+1nHCh945HADnxpvrtfu/cJREtNWX0rb0Yx8CCtssrHGXcPhhoRQbZHYrWzmVYTyq+YB17hjIIpVb0QaxZt5hNTZ5loy319MTrH4lbgMN4mKzl9z3mmN20Z7FzvE6jAQUG438VG0sfy3ude482if1xCKsymD9n6DHLlEimiNu4z2OWm1dhmu7Dfwip5eKkW0xh1HE3Oqk6BW+xzh/wrK6zXuPVrY01XzwzpJEa1DVQ8QldZMQiqqf0iKaI17gaNk/cNSRGvcNv4PpstlIkNhpFAAAAAASUVORK5CYII=;" vertex="1" parent="1">
          <mxGeometry x="230" y="90" width="91.24" height="20" as="geometry" />
        </mxCell>
      </root>
    </mxGraphModel>
  </diagram>
</mxfile>
